<svg width="109" height="72" viewBox="0 0 109 72" fill="none" xmlns="http://www.w3.org/2000/svg">
<g filter="url(#filter0_d_333_188)">
<path d="M56.2348 0.409642L49.3409 0.665022L42.659 3.83174C38.9469 5.51725 35.4469 7.10061 34.9166 7.25384C34.3333 7.45814 32.3181 9.09258 30.409 10.9313C27.7575 13.4851 26.856 14.7109 26.5909 16.1411C26.4318 17.2137 25.8484 19.3589 25.3181 20.9422L24.3105 23.8536L25.7954 26.816C26.6439 28.4504 27.5984 30.6978 27.9166 31.8725L28.553 33.9156L33.2727 34.8349C35.8181 35.3457 38.0984 35.9586 38.2575 36.2651C38.4166 36.5204 38.8409 36.6226 39.159 36.5204C39.5303 36.4183 41.3333 36.7247 43.2424 37.2355L46.6363 38.2059L48.2803 36.6737C51.1439 34.0177 54.1666 34.9371 58.9924 39.9425C64.1894 45.2544 67.1591 47.655 67.5833 46.991C67.7954 46.6335 68.856 46.327 69.9166 46.276C70.9772 46.2249 71.8788 46.0206 71.8788 45.8163C71.8788 45.5609 71.2954 44.5394 70.553 43.5179C69.0151 41.3727 68.9621 40.8108 69.9697 39.4828C70.553 38.7167 71.1363 38.6145 73.5227 38.8189L76.4394 39.1253L77.6591 37.0823C78.7197 35.2435 79.0379 35.0903 80.7348 35.2435C82.4848 35.3968 82.6969 35.2435 83.0682 33.9156C83.3333 33.0983 84.2348 31.515 85.1363 30.4424C86.6742 28.6547 86.7803 28.2972 86.25 27.0203C85.8788 26.2541 85.5076 24.4154 85.4015 22.9342C85.2954 21.453 84.8712 19.8696 84.4469 19.4099C83.3863 18.2352 78.2424 9.2458 78.2424 8.58181C78.2424 8.27536 77.7121 7.86675 77.0227 7.61137C76.3863 7.35599 73.0454 5.51725 69.5985 3.52528C66.1515 1.53332 63.2878 -0.0500432 63.2348 0.0010329C63.1818 0.052109 60.053 0.205337 56.2348 0.409642ZM63.3409 2.04408C63.606 2.70807 63.9772 4.18927 64.1894 5.4151L64.5606 7.56029L58.25 4.64896C51.1969 1.32901 51.1969 1.07363 58.5151 0.971478C62.5984 0.920402 62.9166 1.02255 63.3409 2.04408ZM69.5454 4.29142C72.303 5.87478 74.6894 7.40706 74.8485 7.61137C75.0075 7.86675 73.0985 8.07105 70.606 8.07105C67.6894 8.07105 65.9924 7.86675 65.7272 7.45814C65.1969 6.64092 63.9772 1.43116 64.2954 1.43116C64.4015 1.43116 66.7878 2.70807 69.5454 4.29142ZM47.3257 5.31295C46.106 7.15168 44.6742 8.88827 44.1439 9.19473C43.1893 9.65441 35.2878 8.68397 35.2878 8.12213C35.2878 7.7646 48.0151 2.04408 48.9166 1.993C49.2878 1.94192 48.5454 3.47421 47.3257 5.31295ZM57.4015 5.10864L63.1288 7.71352L60.4772 8.07105C59.0454 8.32643 56.8181 8.58181 55.5984 8.73504L53.3712 8.99042L52.4697 6.33447C51.9924 4.90434 51.4621 3.42313 51.303 3.0656C50.9848 2.14623 51.1969 2.1973 57.4015 5.10864ZM51.5151 5.77263C52.0454 7.30491 52.3106 8.68397 52.1515 8.83719C52.0454 8.99042 50.4015 9.2458 48.5984 9.39903L45.3106 9.75656L47.5378 6.33447C48.7045 4.49573 49.9242 2.96345 50.1894 2.96345C50.4015 2.96345 51.0378 4.24035 51.5151 5.77263ZM63.3939 8.78612C63.3939 9.09258 55.3863 13.8427 55.2272 13.6383C54.75 13.0254 53.7424 10.063 53.9545 9.85872C54.3787 9.45011 63.3939 8.42859 63.3939 8.78612ZM76.2803 8.88827C76.5454 9.14365 75.3257 12.9233 74.7424 13.6383C74.4772 13.9448 67.6363 9.50118 67.6363 9.0415C67.6363 8.53074 75.75 8.37751 76.2803 8.88827ZM38.7878 9.65441C40.4848 9.96087 42.2348 10.3184 42.606 10.4206C43.0833 10.5227 42.0757 11.9528 39.9545 14.1491C38.1515 16.1411 36.5606 17.6223 36.4545 17.5201C36.1363 17.2647 34.8106 11.0845 34.7575 9.96087C34.7575 8.93935 34.7575 8.93935 38.7878 9.65441ZM34.6515 13.383C35.0227 15.2728 35.2348 16.9583 35.1287 17.1115C34.9696 17.2137 33.3787 16.6008 31.5757 15.7325L28.2348 14.098L30.5681 11.8507C31.8409 10.6249 33.1136 9.65441 33.3787 9.75656C33.6969 9.85872 34.2802 11.4932 34.6515 13.383ZM53.6363 11.7485C54.0075 12.8211 54.1136 13.6894 53.8484 13.6894C53.6363 13.6894 51.7803 13.0254 49.7651 12.2082C46.106 10.6759 46.053 10.3184 49.606 9.96087C52.6287 9.65441 52.8939 9.75656 53.6363 11.7485ZM64.2954 10.2162C64.1894 10.5738 63.2878 13.2297 62.2803 16.09C61.3257 19.0013 60.3712 21.3508 60.1591 21.3508C59.7878 21.3508 56.0227 16.0389 55.8636 15.1706C55.7575 14.8131 57.5075 13.434 59.6818 12.1061C63.8712 9.55226 64.7197 9.19473 64.2954 10.2162ZM73.3636 17.3669C72.7272 18.8481 72.0909 20.2782 71.8788 20.4825C71.5606 20.8401 66.5757 11.0845 66.5757 10.063C66.5757 9.80764 68.3788 10.727 70.5 12.1571L74.4772 14.7109L73.3636 17.3669ZM80.8939 15.0685C82.0606 17.1115 83.0151 18.8992 83.0151 19.0524C83.0151 19.2056 81.3182 18.2352 79.25 16.9072C75.2727 14.3534 75.2727 14.3534 76.7045 10.7781C77.2348 9.39903 77.2879 9.34796 78.0303 10.3695C78.4545 10.9313 79.7803 13.0254 80.8939 15.0685ZM68.4318 16.1922C69.7575 19.1035 70.8182 21.5551 70.7121 21.6062C70.3409 21.9637 61.856 22.0659 61.4848 21.7594C61.3257 21.5551 62.0681 18.8481 63.1288 15.7325C64.2424 12.5657 65.303 10.2162 65.5681 10.4716C65.7803 10.6759 67.106 13.2808 68.4318 16.1922ZM53.3181 14.7109C53.3181 14.8642 52.2575 15.5282 50.9848 16.09C49.1818 16.9583 48.4924 17.0604 48.1212 16.6008C47.5378 15.9368 45.3636 11.7996 45.3636 11.4421C45.3636 11.2888 47.1666 11.9018 49.3409 12.8211C51.5151 13.6894 53.3181 14.5577 53.3181 14.7109ZM46.053 14.4556C46.8484 16.0389 47.4848 17.5712 47.4848 17.8777C47.4848 18.1841 46.3712 20.1761 45.0454 22.2191L42.606 25.9988L40.0075 22.781C38.5757 20.9933 37.409 19.2056 37.409 18.797C37.409 18.133 43.6136 11.6464 44.303 11.6464C44.4621 11.6464 45.2575 12.9233 46.053 14.4556ZM31.6818 16.8051L34.9696 18.3884L30.7272 20.6358C26.1136 23.0874 25.7424 23.1896 25.7424 22.2191C25.7424 21.5041 27.2802 16.2432 27.7045 15.5792C28.0227 15.0685 28.1287 15.0685 31.6818 16.8051ZM57.2954 19.0524L59.7348 22.3213L58.356 24.6708C57.5606 25.9477 56.7121 27.0714 56.5 27.2246C56.0757 27.48 48.7575 18.3884 49.1287 18.082C50.2954 17.1626 54.1666 15.3239 54.4848 15.5282C54.6969 15.6814 55.9697 17.2647 57.2954 19.0524ZM79.4621 17.8777C81.106 18.9503 82.4848 20.0739 82.4848 20.3293C82.4848 20.6358 80.8939 20.8401 78.9318 20.8401C76.9166 20.8401 74.7424 20.9933 74.053 21.1976C72.9394 21.453 72.8333 21.4019 73.0985 20.2272C73.8409 17.418 75.1136 15.1706 75.75 15.5282C76.1212 15.7325 77.7651 16.8051 79.4621 17.8777ZM52.2045 23.6493C53.9545 25.8966 55.3333 27.7864 55.2803 27.8375C55.0681 27.9907 44.0909 26.4584 43.8787 26.2031C43.7196 26.1009 44.6742 24.3643 45.8939 22.3724C47.1666 20.3804 48.3863 18.9503 48.5984 19.1546C48.8106 19.3589 50.4545 21.4019 52.2045 23.6493ZM34.7575 20.5847C34.2802 21.7594 32.159 25.9988 31.8409 26.3563C31.5227 26.7138 26.803 24.16 26.9621 23.7514C27.0681 23.3428 34.0151 19.5121 34.8636 19.3589C35.0757 19.3589 35.0227 19.8696 34.7575 20.5847ZM37.356 29.1655L37.409 30.5956L35.2878 29.1655C32.7424 27.4289 32.6363 26.4074 34.5984 22.7299L36.0303 20.0739L36.6666 23.9046C37.0378 25.9988 37.356 28.3993 37.356 29.1655ZM39.5833 23.3939C40.5909 24.6197 41.7045 26.2541 42.0757 26.9692C42.9772 28.5526 45.8939 36.3672 45.6818 36.5204C45.5757 36.6226 43.9848 35.55 42.0757 34.1709L38.5757 31.6171L37.9393 27.3778C37.6212 25.0283 37.1969 22.4234 37.0378 21.6062C36.7196 19.8696 36.8787 20.0229 39.5833 23.3939ZM83.5454 21.6062C83.5454 22.4234 81.7424 25.9477 81.3712 25.9477C81.106 25.9477 79.1439 25.0794 77.0227 24.0579L73.2045 22.117L75.5909 21.8105C78.6666 21.4019 83.5454 21.2998 83.5454 21.6062ZM70.606 23.7514C70.4469 24.5686 70.1818 26.2541 69.9697 27.5821L69.6515 30.0338L65.6212 26.5606L61.6439 23.1385L63.9772 22.832C65.25 22.6788 67.3181 22.4745 68.5909 22.4745C70.8182 22.3724 70.8712 22.4234 70.606 23.7514ZM84.9772 27.2757C84.8182 27.4289 84.1818 27.4289 83.5454 27.2246C82.3788 26.8671 82.4318 26.4074 83.7045 23.3939C84.2348 22.1681 84.2879 22.2702 84.7651 24.5686C85.0303 25.8966 85.1363 27.1224 84.9772 27.2757ZM73.4697 24.5176C74.1591 25.4369 75.2727 26.9181 75.9621 27.7864L77.2348 29.4209L73.8939 29.9827C72.0909 30.2891 70.553 30.4424 70.5 30.3913C70.1818 30.0848 71.5075 22.8831 71.8257 22.8831C72.0378 22.8831 72.7803 23.6493 73.4697 24.5176ZM68.6969 30.7488C68.6969 31.3617 63.3939 34.6306 62.4394 34.6306C62.1742 34.6306 61.803 32.843 61.5909 30.6467C61.3788 28.5015 61.1136 25.8966 60.9015 24.9262L60.5833 23.1896L64.6666 26.7138C66.8939 28.6036 68.6969 30.4424 68.6969 30.7488ZM80.9469 27.9396C79.8333 29.9316 78.4015 29.5741 76.1212 26.6627C74.9545 25.1815 74 23.8025 74 23.6493C74 23.496 75.6969 24.2111 77.7121 25.1815C80.9469 26.7649 81.3712 27.1224 80.9469 27.9396ZM60.9545 31.3107L61.2727 34.3752L60.2121 33.0983C59.6287 32.3833 58.7272 30.9531 58.1439 29.8295L57.0833 27.8886L58.5151 25.7945L59.9469 23.7514L60.2651 25.9988C60.4242 27.2246 60.7424 29.6252 60.9545 31.3107ZM29.5605 26.2541C31.6287 27.2757 31.6818 27.6843 30.303 30.0848L28.9772 32.2811L27.8636 29.7784C25.5833 24.7729 25.5833 24.824 26.909 25.2326C27.5984 25.3858 28.7651 25.8966 29.5605 26.2541ZM50.9318 28.0418C53.106 28.3483 54.909 28.7569 54.909 28.9612C54.909 29.1655 53.8484 30.3402 52.5227 31.5661L50.1363 33.8134L48.7575 32.5365C48.0151 31.8725 46.6893 30.4424 45.7878 29.3698L44.1969 27.48H45.5757C46.3181 27.48 48.7045 27.7353 50.9318 28.0418ZM83.2803 27.9907C83.4394 28.2461 83.2272 28.5015 82.803 28.5015C82.3257 28.5015 81.9545 28.2461 81.9545 27.9907C81.9545 27.6843 82.1666 27.48 82.4318 27.48C82.75 27.48 83.1212 27.6843 83.2803 27.9907ZM37.356 31.8214C38.0454 32.5876 38.2575 34.886 37.6742 34.886C36.1363 34.8349 29.9848 33.3537 29.9848 32.9962C29.9848 32.7919 30.5151 31.5661 31.1515 30.3402L32.2651 28.0418L34.5984 29.6762C35.8712 30.5445 37.1439 31.515 37.356 31.8214ZM48.3863 35.55C47.0606 36.929 46.7424 36.6737 45.4166 33.0983C44.8863 31.5661 44.25 29.8295 44.0378 29.2676C43.8257 28.7058 44.9393 29.6252 46.5833 31.3107L49.5 34.3752L48.3863 35.55ZM84.606 29.4209C84.606 29.6252 83.9697 30.6978 83.2272 31.7704C82.0076 33.4559 81.7424 33.6091 81.053 32.9962C79.8863 31.8214 80.6818 29.6252 82.3788 29.3698C83.1742 29.2676 83.9697 29.1144 84.2348 29.0633C84.4469 29.0633 84.606 29.1655 84.606 29.4209ZM58.5681 31.9747C59.4697 33.3537 60.2121 34.6306 60.2121 34.7838C60.2121 34.9881 59.2575 35.1414 58.0909 35.1414C56.0757 35.1414 55.9697 35.0903 55.9697 33.4559C55.9697 31.8725 56.4469 29.523 56.7651 29.523C56.8712 29.523 57.6666 30.6467 58.5681 31.9747ZM55.1742 32.7919C54.803 34.9371 54.6439 35.1414 53.6363 34.8349C51.5151 34.222 51.4621 33.6602 53.3181 31.8214C54.2727 30.851 55.1742 30.1359 55.3333 30.2381C55.4394 30.3402 55.3333 31.515 55.1742 32.7919ZM78.4545 31.0042C79.4621 32.0768 79.0909 33.6091 77.7651 33.6091C77.2879 33.558 75.856 32.9962 74.5303 32.3322C72.303 31.2085 72.1969 31.1574 73.4697 30.851C74.8485 30.5956 76.6515 30.187 77.2348 30.0848C77.3939 30.0848 77.9242 30.4424 78.4545 31.0042ZM79.8333 30.5445C79.8333 30.7999 79.7272 31.0553 79.6212 31.0553C79.4621 31.0553 79.1969 30.7999 79.0379 30.5445C78.8788 30.2381 78.9848 30.0338 79.25 30.0338C79.5682 30.0338 79.8333 30.2381 79.8333 30.5445ZM69.8636 34.4774C70.1288 37.3887 69.4394 39.7382 68.3257 39.7382C67.053 39.7382 62.7575 36.0607 63.3409 35.4989C64.0303 34.8349 68.856 32.0768 69.2803 32.0768C69.4924 32.0768 69.7575 33.1494 69.8636 34.4774ZM77.3939 34.6306C77.8712 35.1414 76.8106 37.6952 76.1212 37.6952C75.803 37.6952 71.8788 32.7919 71.8788 32.3833C71.8788 32.0257 76.7575 34.0688 77.3939 34.6306ZM74.5303 37.593C74.5303 38.0016 74.106 38.1038 73.0985 37.8995C71.1363 37.4398 70.9772 37.2866 70.6591 34.6306L70.3409 32.3322L72.4091 34.6306C73.5757 35.9075 74.5303 37.2355 74.5303 37.593ZM42.1818 35.0903C43.4015 36.0607 43.4545 36.1629 42.4469 36.1629C41.0151 36.1629 38.9999 34.7838 38.9999 33.8134C38.9999 32.9962 39.8484 33.3026 42.1818 35.0903ZM80.8939 34.1709C80.8939 34.4263 80.5227 34.6306 80.0985 34.6306C79.303 34.6306 79.0379 34.0177 79.6212 33.4559C80.0454 33.0473 80.8939 33.5069 80.8939 34.1709ZM61.5909 36.878C61.75 37.2866 61.803 38.4102 61.6969 39.4318L61.5378 41.3216L58.8863 38.7678L56.2878 36.1629H58.7803C60.4772 36.1629 61.3788 36.4183 61.5909 36.878ZM65.303 38.921L67.3712 40.6576L65.303 41.4748C64.1363 41.9345 63.1818 42.241 63.1288 42.1899C62.7045 41.6791 62.3333 37.1844 62.7575 37.1844C63.0227 37.1844 64.1363 37.9506 65.303 38.921ZM67.4772 42.5474C67.1591 43.3135 64.4545 43.6711 64.4545 42.9049C64.4545 42.4963 67.2121 41.3216 67.5833 41.577C67.6894 41.6791 67.6363 42.0877 67.4772 42.5474ZM69.7575 43.9775C69.7575 44.9991 68.4318 43.9265 68.2727 42.7517C68.1666 41.577 68.1666 41.577 68.9621 42.4963C69.3863 43.0582 69.7575 43.7222 69.7575 43.9775ZM66.5757 44.948C66.5757 45.612 65.356 45.2034 65.0909 44.4372C64.9848 44.0797 65.1969 43.9265 65.7272 44.1308C66.2045 44.284 66.5757 44.6926 66.5757 44.948ZM68.9621 45.3566C68.803 45.612 68.4318 45.8674 68.1136 45.8674C67.8485 45.8674 67.6363 45.612 67.6363 45.3566C67.6363 45.0501 68.0075 44.8458 68.4848 44.8458C68.9091 44.8458 69.1212 45.0501 68.9621 45.3566Z" fill="#EBFF00"/>
</g>
<g filter="url(#filter1_d_333_188)">
<path d="M4 57.8699V63.2329H6.33333C7.76515 63.2329 9.03788 62.9265 9.51515 62.4157C10.4697 61.5474 10.6288 59.0957 9.83334 58.3296C9.51515 58.0231 9.51515 57.257 9.9394 56.2355C10.8409 53.886 9.46212 52.5069 6.2803 52.5069H4V57.8699ZM8.50758 55.3161C8.50758 56.593 8.29546 56.8484 7.07576 57.0016C5.69697 57.1549 5.59091 57.0527 5.59091 55.3161C5.59091 53.5795 5.69697 53.4774 7.07576 53.6306C8.29546 53.7838 8.50758 54.0392 8.50758 55.3161ZM8.77273 59.1468C9.56818 60.577 8.56061 62.2114 6.91667 62.2114C5.75 62.2114 5.59091 62.0071 5.59091 60.1683C5.59091 58.3296 5.75 58.1253 6.91667 58.1253C7.65909 58.1253 8.45455 58.5339 8.77273 59.1468Z" fill="white"/>
</g>
<path d="M11.9546 57.8699C11.9546 62.3135 12.1137 63.2329 12.75 63.2329C13.3334 63.2329 13.5455 62.62 13.5455 60.9345C13.5455 59.1979 13.7576 58.6361 14.341 58.6361C14.8182 58.6361 15.6137 59.6576 16.197 60.9345C16.7803 62.2114 17.5758 63.2329 18 63.2329C18.6364 63.2329 18.5834 62.8243 17.7349 60.8834C16.7273 58.7382 16.7273 58.4828 17.4697 57.6656C18.5834 56.4398 18.5304 54.3967 17.3637 53.3752C16.7803 52.8645 15.4546 52.5069 14.1819 52.5069H11.9546V57.8699ZM16.4622 55.5715C16.4622 57.1549 16.3031 57.3592 15.0303 57.5124C13.5985 57.6656 13.5455 57.5635 13.5455 55.5715C13.5455 53.5795 13.5985 53.4774 15.0303 53.6306C16.3031 53.7838 16.4622 53.9881 16.4622 55.5715Z" fill="white"/>
<path d="M21.0227 57.5639C20.1212 60.322 19.3788 62.7737 19.3788 62.978C19.3788 63.8463 20.7045 62.7737 20.9697 61.65C21.2348 60.6795 21.6591 60.3731 23.25 60.2709C25.053 60.1177 25.2652 60.2199 25.5303 61.65C25.7424 62.5694 26.2197 63.2333 26.6439 63.2333C27.1742 63.2333 27.3333 62.9269 27.1212 62.365C26.9091 61.9054 26.1136 59.5048 25.3712 57.0021C24.5758 54.5504 23.6742 52.5074 23.3561 52.5074C22.9848 52.5074 21.9773 54.7547 21.0227 57.5639ZM24.3636 57.7171C24.6818 58.994 24.5758 59.1473 23.3561 59.1473C21.8182 59.1473 21.8182 59.1473 22.6667 56.4913C23.303 54.3461 23.5152 54.4993 24.3636 57.7171Z" fill="white"/>
<path d="M28.9241 57.8699C28.9241 62.3135 29.0832 63.2329 29.7195 63.2329C30.3559 63.2329 30.515 62.3135 30.515 57.8699C30.515 53.4263 30.3559 52.5069 29.7195 52.5069C29.0832 52.5069 28.9241 53.4263 28.9241 57.8699Z" fill="white"/>
<path d="M32.6366 57.8699C32.6366 62.3135 32.7957 63.2329 33.4321 63.2329C34.0684 63.2329 34.2275 62.4668 34.2275 59.249L34.2805 55.3161L36.4018 59.249C39.3715 64.8673 40.0608 64.612 40.0608 57.8699C40.0608 53.4263 39.9018 52.5069 39.2654 52.5069C38.629 52.5069 38.4699 53.2731 38.4699 56.4398L38.4169 60.4237L36.2957 56.4398C33.326 50.8725 32.6366 51.1279 32.6366 57.8699Z" fill="white"/>
<path d="M43.0303 53.3242C41.9697 54.2946 41.9166 56.2866 42.9242 57.257C43.3485 57.6656 44.4091 58.2785 45.3636 58.6361C46.6894 59.1468 46.9545 59.5554 46.8485 60.628C46.6363 62.3646 44.6742 62.7221 43.6666 61.2409C42.9772 60.1173 41.6515 59.7597 41.6515 60.6791C41.6515 61.7006 43.8257 63.2329 45.2576 63.2329C47.0076 63.2329 48.5454 61.8539 48.5454 60.2705C48.5454 59.1979 46.5833 57.4102 44.8333 56.8484C43.5606 56.4909 43.0833 55.1118 43.8257 54.2435C44.7272 53.1709 46.4773 53.3752 46.7954 54.55C47.0606 55.5715 48.5454 56.0312 48.5454 55.0607C48.5454 54.0903 46.4242 52.5069 45.1515 52.5069C44.4091 52.5069 43.4545 52.8645 43.0303 53.3242Z" fill="white"/>
<path d="M49.6061 53.0177C49.6061 53.2731 50.1894 53.5285 50.9318 53.5285C52.2576 53.5285 52.2576 53.5285 52.2576 58.3807C52.2576 62.3646 52.4167 63.2329 53.0531 63.2329C53.6894 63.2329 53.8485 62.3646 53.8485 58.3807C53.8485 53.5285 53.8485 53.5285 55.1743 53.5285C55.9167 53.5285 56.5 53.2731 56.5 53.0177C56.5 52.7112 55.0152 52.5069 53.0531 52.5069C51.0909 52.5069 49.6061 52.7112 49.6061 53.0177Z" fill="white"/>
<path d="M59.1514 53.5285C58.3029 54.3457 58.0908 55.214 58.0908 57.8699C58.0908 61.5985 59.1514 63.2329 61.5378 63.2329C63.9242 63.2329 64.9848 61.5985 64.9848 57.8699C64.9848 54.1414 63.9242 52.5069 61.5378 52.5069C60.7954 52.5069 59.7348 52.9666 59.1514 53.5285ZM63.3939 54.4989C63.659 55.0607 63.9242 56.593 63.9242 57.8699C63.9242 60.8834 63.1817 62.2114 61.5378 62.2114C59.8939 62.2114 59.1514 60.8834 59.1514 57.8699C59.1514 54.8564 59.8939 53.5285 61.5378 53.5285C62.2802 53.5285 63.0757 53.9371 63.3939 54.4989Z" fill="white"/>
<path d="M67.6366 57.8699C67.6366 62.3135 67.7957 63.2329 68.4321 63.2329C69.0154 63.2329 69.2275 62.62 69.2275 60.9345C69.2275 59.1979 69.4396 58.6361 70.023 58.6361C70.5002 58.6361 71.2957 59.6576 71.879 60.9345C72.4624 62.2114 73.2578 63.2329 73.6821 63.2329C74.3184 63.2329 74.2654 62.8243 73.4169 60.8834C72.4093 58.7382 72.4093 58.4828 73.1518 57.6656C74.2654 56.4398 74.2124 54.3967 73.0457 53.3752C72.4624 52.8645 71.1366 52.5069 69.8639 52.5069H67.6366V57.8699ZM72.1442 55.5715C72.1442 57.1549 71.9851 57.3592 70.7124 57.5124C69.2805 57.6656 69.2275 57.5635 69.2275 55.5715C69.2275 53.5795 69.2805 53.4774 70.7124 53.6306C71.9851 53.7838 72.1442 53.9881 72.1442 55.5715Z" fill="white"/>
<path d="M75.5908 57.8699C75.5908 62.3135 75.7499 63.2329 76.3863 63.2329C77.0226 63.2329 77.1817 62.4668 77.2348 59.5044V55.8269L78.4014 59.3511C79.0378 61.292 79.8332 62.9775 80.2045 63.0797C80.5226 63.1818 81.3711 61.7006 82.1136 59.5554L83.4393 55.8269L83.4923 59.5044C83.5454 62.4668 83.7045 63.2329 84.3408 63.2329C84.9772 63.2329 85.1363 62.3135 85.1363 57.8699C85.1363 53.0177 85.0302 52.5069 84.1817 52.5069C83.4393 52.5069 82.909 53.4263 81.9545 56.3887C81.2651 58.4828 80.5226 60.3216 80.3636 60.4237C80.1514 60.5259 79.462 58.7893 78.7726 56.593C77.8181 53.3752 77.3939 52.5069 76.5984 52.5069C75.6969 52.5069 75.5908 52.9666 75.5908 57.8699Z" fill="white"/>
<path d="M86.7273 57.8699V63.2329H89.644C91.2349 63.2329 92.5606 62.9775 92.5606 62.7221C92.5606 62.4157 91.6061 62.2114 90.4394 62.2114H88.3182V60.1683C88.3182 58.1764 88.3712 58.1253 90.1743 58.1253C91.1818 58.1253 92.0303 57.8699 92.0303 57.6145C92.0303 57.3081 91.1818 57.1038 90.1743 57.1038C88.4243 57.1038 88.3182 57.0016 88.3182 55.3161C88.3182 53.5795 88.3712 53.5285 90.4394 53.5285C91.6061 53.5285 92.5606 53.2731 92.5606 53.0177C92.5606 52.7112 91.2349 52.5069 89.644 52.5069H86.7273V57.8699Z" fill="white"/>
<path d="M94.682 57.8699C94.682 62.3135 94.8411 63.2329 95.4775 63.2329C96.0608 63.2329 96.2729 62.62 96.2729 60.9345C96.2729 59.1979 96.485 58.6361 97.0684 58.6361C97.5456 58.6361 98.3411 59.6576 98.9244 60.9345C99.5078 62.2114 100.303 63.2329 100.727 63.2329C101.364 63.2329 101.311 62.8243 100.462 60.8834C99.4547 58.7382 99.4547 58.4828 100.197 57.6656C101.311 56.4398 101.258 54.3967 100.091 53.3752C99.5078 52.8645 98.182 52.5069 96.9093 52.5069H94.682V57.8699ZM99.1896 55.5715C99.1896 57.1549 99.0305 57.3592 97.7578 57.5124C96.3259 57.6656 96.2729 57.5635 96.2729 55.5715C96.2729 53.5795 96.3259 53.4774 97.7578 53.6306C99.0305 53.7838 99.1896 53.9881 99.1896 55.5715Z" fill="white"/>
<path d="M103.485 53.3242C102.424 54.2946 102.371 56.2866 103.379 57.257C103.803 57.6656 104.864 58.2785 105.818 58.6361C107.144 59.1468 107.409 59.5554 107.303 60.628C107.091 62.3646 105.129 62.7221 104.121 61.2409C103.432 60.1173 102.106 59.7597 102.106 60.6791C102.106 61.7006 104.28 63.2329 105.712 63.2329C107.462 63.2329 109 61.8539 109 60.2705C109 59.1979 107.038 57.4102 105.288 56.8484C104.015 56.4909 103.538 55.1118 104.28 54.2435C105.182 53.1709 106.932 53.3752 107.25 54.55C107.515 55.5715 109 56.0312 109 55.0607C109 54.0903 106.879 52.5069 105.606 52.5069C104.864 52.5069 103.909 52.8645 103.485 53.3242Z" fill="white"/>
<path d="M4.53052 69.3623C4.53052 69.7198 22.0305 69.873 55.9699 69.873C89.9093 69.873 107.409 69.7198 107.409 69.3623C107.409 69.0048 89.9093 68.8515 55.9699 68.8515C22.0305 68.8515 4.53052 69.0048 4.53052 69.3623Z" fill="white"/>
<defs>
<filter id="filter0_d_333_188" x="20.3105" y="0" width="70.2284" height="55.0991" filterUnits="userSpaceOnUse" color-interpolation-filters="sRGB">
<feFlood flood-opacity="0" result="BackgroundImageFix"/>
<feColorMatrix in="SourceAlpha" type="matrix" values="0 0 0 0 0 0 0 0 0 0 0 0 0 0 0 0 0 0 127 0" result="hardAlpha"/>
<feOffset dy="4"/>
<feGaussianBlur stdDeviation="2"/>
<feComposite in2="hardAlpha" operator="out"/>
<feColorMatrix type="matrix" values="0 0 0 0 0 0 0 0 0 0 0 0 0 0 0 0 0 0 0.25 0"/>
<feBlend mode="normal" in2="BackgroundImageFix" result="effect1_dropShadow_333_188"/>
<feBlend mode="normal" in="SourceGraphic" in2="effect1_dropShadow_333_188" result="shape"/>
</filter>
<filter id="filter1_d_333_188" x="0" y="52.5068" width="14.3427" height="18.7261" filterUnits="userSpaceOnUse" color-interpolation-filters="sRGB">
<feFlood flood-opacity="0" result="BackgroundImageFix"/>
<feColorMatrix in="SourceAlpha" type="matrix" values="0 0 0 0 0 0 0 0 0 0 0 0 0 0 0 0 0 0 127 0" result="hardAlpha"/>
<feOffset dy="4"/>
<feGaussianBlur stdDeviation="2"/>
<feComposite in2="hardAlpha" operator="out"/>
<feColorMatrix type="matrix" values="0 0 0 0 0 0 0 0 0 0 0 0 0 0 0 0 0 0 0.25 0"/>
<feBlend mode="normal" in2="BackgroundImageFix" result="effect1_dropShadow_333_188"/>
<feBlend mode="normal" in="SourceGraphic" in2="effect1_dropShadow_333_188" result="shape"/>
</filter>
</defs>
</svg>
